<?xml version="1.0" encoding="utf-8"?>
<!-- Generator: Adobe Illustrator 24.1.2, SVG Export Plug-In . SVG Version: 6.00 Build 0)  -->
<svg version="1.1" xmlns="http://www.w3.org/2000/svg" xmlns:xlink="http://www.w3.org/1999/xlink" x="0px" y="0px"
	 viewBox="0 0 16 16" style="enable-background:new 0 0 16 16;" xml:space="preserve">
<style type="text/css">
	.st0{display:none;}
	.st1{display:inline;}
</style>
<g id="original">
</g>
<g id="boots">
	<rect x="1" y="10" width="1" height="1"/>
	<rect x="2" y="9" width="1" height="1"/>
	<rect x="1" y="11" width="1" height="1"/>
	<rect x="5" y="11" transform="matrix(4.456530e-11 -1 1 4.456530e-11 -6 17)" width="1" height="1"/>
	<rect x="6" y="11" transform="matrix(4.456530e-11 -1 1 4.456530e-11 -5 18)" width="1" height="1"/>
	<rect x="6" y="7" width="1" height="1"/>
	<rect x="6" y="5" width="1" height="1"/>
	<rect x="6" y="4" width="1" height="1"/>
	<rect x="6" y="6" width="1" height="1"/>
	<rect x="6" y="9" width="1" height="1"/>
	<rect x="6" y="10" width="1" height="1"/>
	<rect x="6" y="8" width="1" height="1"/>
	<rect x="3" y="7" width="1" height="1"/>
	<rect x="3" y="8" width="1" height="1"/>
	<rect x="3" y="5" width="1" height="1"/>
	<rect x="3" y="4" width="1" height="1"/>
	<rect x="3" y="6" width="1" height="1"/>
	<rect x="5" y="3" transform="matrix(4.456530e-11 -1 1 4.456530e-11 2 9)" width="1" height="1"/>
	<rect x="6" y="3" transform="matrix(4.456530e-11 -1 1 4.456530e-11 3 10)" width="1" height="1"/>
	<rect x="4" y="3" transform="matrix(4.456530e-11 -1 1 4.456530e-11 1 8)" width="1" height="1"/>
	<rect x="3" y="12" transform="matrix(4.547480e-11 -1 1 4.547480e-11 -9 16)" width="1" height="1"/>
	<rect x="4" y="12" transform="matrix(4.547480e-11 -1 1 4.547480e-11 -8 17)" width="1" height="1"/>
	<rect x="1" y="12" transform="matrix(4.547480e-11 -1 1 4.547480e-11 -11 14)" width="1" height="1"/>
	<rect x="2" y="12" transform="matrix(4.547480e-11 -1 1 4.547480e-11 -10 15)" width="1" height="1"/>
	<rect x="14" y="10" transform="matrix(-1 -1.224647e-16 1.224647e-16 -1 29 21)" width="1" height="1"/>
	<rect x="13" y="9" transform="matrix(-1 -1.224647e-16 1.224647e-16 -1 27 19)" width="1" height="1"/>
	<rect x="14" y="11" transform="matrix(-1 -1.224647e-16 1.224647e-16 -1 29 23)" width="1" height="1"/>
	<rect x="10" y="11" transform="matrix(6.123234e-17 -1 1 6.123234e-17 -1 22)" width="1" height="1"/>
	<rect x="9" y="11" transform="matrix(6.123234e-17 -1 1 6.123234e-17 -2 21)" width="1" height="1"/>
	<rect x="9" y="7" transform="matrix(-1 -1.224647e-16 1.224647e-16 -1 19 15)" width="1" height="1"/>
	<rect x="9" y="5" transform="matrix(-1 -1.224647e-16 1.224647e-16 -1 19 11)" width="1" height="1"/>
	<rect x="9" y="4" transform="matrix(-1 -1.224647e-16 1.224647e-16 -1 19 9)" width="1" height="1"/>
	<rect x="9" y="6" transform="matrix(-1 -1.224647e-16 1.224647e-16 -1 19 13)" width="1" height="1"/>
	<rect x="9" y="9" transform="matrix(-1 -1.224647e-16 1.224647e-16 -1 19 19)" width="1" height="1"/>
	<rect x="9" y="10" transform="matrix(-1 -1.224647e-16 1.224647e-16 -1 19 21)" width="1" height="1"/>
	<rect x="9" y="8" transform="matrix(-1 -1.224647e-16 1.224647e-16 -1 19 17)" width="1" height="1"/>
	<rect x="12" y="7" transform="matrix(-1 -1.224647e-16 1.224647e-16 -1 25 15)" width="1" height="1"/>
	<rect x="12" y="8" transform="matrix(-1 -1.224647e-16 1.224647e-16 -1 25 17)" width="1" height="1"/>
	<rect x="12" y="5" transform="matrix(-1 -1.224647e-16 1.224647e-16 -1 25 11)" width="1" height="1"/>
	<rect x="12" y="4" transform="matrix(-1 -1.224647e-16 1.224647e-16 -1 25 9)" width="1" height="1"/>
	<rect x="12" y="6" transform="matrix(-1 -1.224647e-16 1.224647e-16 -1 25 13)" width="1" height="1"/>
	<rect x="10" y="3" transform="matrix(6.123234e-17 -1 1 6.123234e-17 7 14)" width="1" height="1"/>
	<rect x="9" y="3" transform="matrix(6.123234e-17 -1 1 6.123234e-17 6 13)" width="1" height="1"/>
	<rect x="11" y="3" transform="matrix(6.123234e-17 -1 1 6.123234e-17 8 15)" width="1" height="1"/>
	<rect x="12" y="12" transform="matrix(6.123234e-17 -1 1 6.123234e-17 -9.094947e-13 25)" width="1" height="1"/>
	<rect x="11" y="12" transform="matrix(6.123234e-17 -1 1 6.123234e-17 -1 24)" width="1" height="1"/>
	<rect x="14" y="12" transform="matrix(6.123234e-17 -1 1 6.123234e-17 2 27)" width="1" height="1"/>
	<rect x="13" y="12" transform="matrix(6.123234e-17 -1 1 6.123234e-17 1 26)" width="1" height="1"/>
</g>
<g id="pants" class="st0">
	<rect x="3" y="4" class="st1" width="1" height="1"/>
	<rect x="3" y="3" class="st1" width="1" height="1"/>
	<rect x="3" y="6" class="st1" width="1" height="1"/>
	<rect x="3" y="5" class="st1" width="1" height="1"/>
	<rect x="8" y="6" transform="matrix(-4.547492e-11 1 -1 -4.547492e-11 15 -2)" class="st1" width="1" height="1"/>
	<rect x="7" y="6" transform="matrix(-4.547492e-11 1 -1 -4.547492e-11 14 -1)" class="st1" width="1" height="1"/>
	<rect x="6" y="8" transform="matrix(-1 -4.547486e-11 4.547486e-11 -1 13 17)" class="st1" width="1" height="1"/>
	<rect x="6" y="7" transform="matrix(-1 -4.547486e-11 4.547486e-11 -1 13 15)" class="st1" width="1" height="1"/>
	<rect x="6" y="9" transform="matrix(-1 -4.547486e-11 4.547486e-11 -1 13 19)" class="st1" width="1" height="1"/>
	<rect x="6" y="11" transform="matrix(-1 -4.547486e-11 4.547486e-11 -1 13 23)" class="st1" width="1" height="1"/>
	<rect x="6" y="10" transform="matrix(-1 -4.547486e-11 4.547486e-11 -1 13 21)" class="st1" width="1" height="1"/>
	<rect x="6" y="12" transform="matrix(-1 -4.547486e-11 4.547486e-11 -1 13 25)" class="st1" width="1" height="1"/>
	<rect x="5" y="13" transform="matrix(-4.456542e-11 1 -1 -4.456542e-11 19 8)" class="st1" width="1" height="1"/>
	<rect x="4" y="13" transform="matrix(-4.456542e-11 1 -1 -4.456542e-11 18 9)" class="st1" width="1" height="1"/>
	<rect x="6" y="13" transform="matrix(-4.456542e-11 1 -1 -4.456542e-11 20 7)" class="st1" width="1" height="1"/>
	<rect x="3" y="12" class="st1" width="1" height="1"/>
	<rect x="3" y="13" class="st1" width="1" height="1"/>
	<rect x="3" y="11" class="st1" width="1" height="1"/>
	<rect x="3" y="9" class="st1" width="1" height="1"/>
	<rect x="3" y="10" class="st1" width="1" height="1"/>
	<rect x="3" y="7" class="st1" width="1" height="1"/>
	<rect x="3" y="8" class="st1" width="1" height="1"/>
	<rect x="12" y="4" transform="matrix(-1 -1.224647e-16 1.224647e-16 -1 25 9)" class="st1" width="1" height="1"/>
	<rect x="12" y="3" transform="matrix(-1 -1.224647e-16 1.224647e-16 -1 25 7)" class="st1" width="1" height="1"/>
	<rect x="12" y="6" transform="matrix(-1 -1.224647e-16 1.224647e-16 -1 25 13)" class="st1" width="1" height="1"/>
	<rect x="12" y="5" transform="matrix(-1 -1.224647e-16 1.224647e-16 -1 25 11)" class="st1" width="1" height="1"/>
	<rect x="9" y="8" class="st1" width="1" height="1"/>
	<rect x="9" y="7" class="st1" width="1" height="1"/>
	<rect x="9" y="9" class="st1" width="1" height="1"/>
	<rect x="9" y="11" class="st1" width="1" height="1"/>
	<rect x="9" y="10" class="st1" width="1" height="1"/>
	<rect x="9" y="12" class="st1" width="1" height="1"/>
	<rect x="10" y="13" transform="matrix(-1.836970e-16 1 -1 -1.836970e-16 24 3)" class="st1" width="1" height="1"/>
	<rect x="11" y="13" transform="matrix(-1.836970e-16 1 -1 -1.836970e-16 25 2)" class="st1" width="1" height="1"/>
	<rect x="9" y="13" transform="matrix(-1.836970e-16 1 -1 -1.836970e-16 23 4)" class="st1" width="1" height="1"/>
	<rect x="12" y="12" transform="matrix(-1 -1.224647e-16 1.224647e-16 -1 25 25)" class="st1" width="1" height="1"/>
	<rect x="12" y="13" transform="matrix(-1 -1.224647e-16 1.224647e-16 -1 25 27)" class="st1" width="1" height="1"/>
	<rect x="12" y="11" transform="matrix(-1 -1.224647e-16 1.224647e-16 -1 25 23)" class="st1" width="1" height="1"/>
	<rect x="12" y="9" transform="matrix(-1 -1.224647e-16 1.224647e-16 -1 25 19)" class="st1" width="1" height="1"/>
	<rect x="12" y="10" transform="matrix(-1 -1.224647e-16 1.224647e-16 -1 25 21)" class="st1" width="1" height="1"/>
	<rect x="12" y="7" transform="matrix(-1 -1.224647e-16 1.224647e-16 -1 25 15)" class="st1" width="1" height="1"/>
	<rect x="12" y="8" transform="matrix(-1 -1.224647e-16 1.224647e-16 -1 25 17)" class="st1" width="1" height="1"/>
	<rect x="10" y="2" transform="matrix(6.123234e-17 -1 1 6.123234e-17 8 13)" class="st1" width="1" height="1"/>
	<rect x="11" y="2" transform="matrix(6.123234e-17 -1 1 6.123234e-17 9 14)" class="st1" width="1" height="1"/>
	<rect x="8" y="2" transform="matrix(6.123234e-17 -1 1 6.123234e-17 6 11)" class="st1" width="1" height="1"/>
	<rect x="9" y="2" transform="matrix(6.123234e-17 -1 1 6.123234e-17 7 12)" class="st1" width="1" height="1"/>
	<rect x="5" y="2" transform="matrix(6.123234e-17 -1 1 6.123234e-17 3 8)" class="st1" width="1" height="1"/>
	<rect x="4" y="2" transform="matrix(6.123234e-17 -1 1 6.123234e-17 2 7)" class="st1" width="1" height="1"/>
	<rect x="7" y="2" transform="matrix(6.123234e-17 -1 1 6.123234e-17 5 10)" class="st1" width="1" height="1"/>
	<rect x="6" y="2" transform="matrix(6.123234e-17 -1 1 6.123234e-17 4 9)" class="st1" width="1" height="1"/>
</g>
<g id="Слой_2" class="st0">
	<rect x="15" y="15" transform="matrix(6.123234e-17 -1 1 6.123234e-17 -9.112711e-13 31)" class="st1" width="1" height="1"/>
	<rect x="15" y="14" transform="matrix(6.123234e-17 -1 1 6.123234e-17 1 30)" class="st1" width="1" height="1"/>
	<rect x="15" y="13" transform="matrix(6.123234e-17 -1 1 6.123234e-17 2 29)" class="st1" width="1" height="1"/>
	<rect x="15" y="12" transform="matrix(6.123234e-17 -1 1 6.123234e-17 3 28)" class="st1" width="1" height="1"/>
	<rect x="15" y="11" transform="matrix(6.123234e-17 -1 1 6.123234e-17 4 27)" class="st1" width="1" height="1"/>
	<rect x="15" y="10" transform="matrix(6.123234e-17 -1 1 6.123234e-17 5 26)" class="st1" width="1" height="1"/>
	<rect x="15" y="9" transform="matrix(6.123234e-17 -1 1 6.123234e-17 6 25)" class="st1" width="1" height="1"/>
	<rect x="15" y="8" transform="matrix(6.123234e-17 -1 1 6.123234e-17 7 24)" class="st1" width="1" height="1"/>
	<rect x="15" y="7" transform="matrix(6.123234e-17 -1 1 6.123234e-17 8 23)" class="st1" width="1" height="1"/>
	<rect x="15" y="6" transform="matrix(6.123234e-17 -1 1 6.123234e-17 9 22)" class="st1" width="1" height="1"/>
	<rect x="15" y="5" transform="matrix(6.123234e-17 -1 1 6.123234e-17 10 21)" class="st1" width="1" height="1"/>
	<rect x="15" y="4" transform="matrix(6.123234e-17 -1 1 6.123234e-17 11 20)" class="st1" width="1" height="1"/>
	<rect x="15" y="3" transform="matrix(6.123234e-17 -1 1 6.123234e-17 12 19)" class="st1" width="1" height="1"/>
	<rect x="15" y="2" transform="matrix(6.123234e-17 -1 1 6.123234e-17 13 18)" class="st1" width="1" height="1"/>
	<rect x="15" y="1" transform="matrix(6.123234e-17 -1 1 6.123234e-17 14 17)" class="st1" width="1" height="1"/>
	<rect class="st1" width="1" height="1"/>
	<rect x="1" class="st1" width="1" height="1"/>
	<rect x="2" class="st1" width="1" height="1"/>
	<rect x="3" class="st1" width="1" height="1"/>
	<rect x="4" class="st1" width="1" height="1"/>
	<rect x="5" class="st1" width="1" height="1"/>
	<rect x="6" class="st1" width="1" height="1"/>
	<rect x="7" class="st1" width="1" height="1"/>
	<rect x="8" class="st1" width="1" height="1"/>
	<rect x="9" class="st1" width="1" height="1"/>
	<rect x="10" class="st1" width="1" height="1"/>
	<rect x="11" class="st1" width="1" height="1"/>
	<rect x="12" class="st1" width="1" height="1"/>
	<rect x="13" class="st1" width="1" height="1"/>
	<rect x="14" class="st1" width="1" height="1"/>
	<rect x="15" class="st1" width="1" height="1"/>
</g>
</svg>
