<?xml version="1.0" encoding="utf-8"?>
<!-- Generator: Adobe Illustrator 24.1.2, SVG Export Plug-In . SVG Version: 6.00 Build 0)  -->
<svg version="1.1" xmlns="http://www.w3.org/2000/svg" xmlns:xlink="http://www.w3.org/1999/xlink" x="0px" y="0px"
	 viewBox="0 0 9 9" style="enable-background:new 0 0 9 9;" xml:space="preserve">
<style type="text/css">
	.st0{display:none;}
	.st1{display:inline;}
	.st2{fill:#55FF55;}
	.st3{display:inline;fill:#3AFF0A;}
</style>
<g id="empty_socket" class="st0">
	<rect y="8" transform="matrix(6.123234e-17 -1 1 6.123234e-17 -8 9)" class="st1" width="1" height="1"/>
	<rect y="7" transform="matrix(6.123234e-17 -1 1 6.123234e-17 -7 8)" class="st1" width="1" height="1"/>
	<rect x="1" y="8" transform="matrix(6.123234e-17 -1 1 6.123234e-17 -7 10)" class="st1" width="1" height="1"/>
	<rect x="8" y="8" transform="matrix(-1 -1.224647e-16 1.224647e-16 -1 17 17)" class="st1" width="1" height="1"/>
	<rect x="7" y="8" transform="matrix(-1 -1.224647e-16 1.224647e-16 -1 15 17)" class="st1" width="1" height="1"/>
	<rect x="8" y="7" transform="matrix(-1 -1.224647e-16 1.224647e-16 -1 17 15)" class="st1" width="1" height="1"/>
	<rect x="8" transform="matrix(-1.836970e-16 1 -1 -1.836970e-16 9 -8)" class="st1" width="1" height="1"/>
	<rect x="8" y="1" transform="matrix(-1.836970e-16 1 -1 -1.836970e-16 10 -7)" class="st1" width="1" height="1"/>
	<rect x="7" transform="matrix(-1.836970e-16 1 -1 -1.836970e-16 8 -7)" class="st1" width="1" height="1"/>
	<rect class="st1" width="1" height="1"/>
	<rect x="1" class="st1" width="1" height="1"/>
	<rect y="1" class="st1" width="1" height="1"/>
</g>
<g id="tick">
	<rect x="7" y="1.03" class="st2" width="1" height="1"/>
	<rect x="6" y="1.03" class="st2" width="1" height="1"/>
	<rect x="7" y="2.03" class="st2" width="1" height="1"/>
	<rect x="6" y="2.03" class="st2" width="1" height="1"/>
	<rect x="6" y="3.03" class="st2" width="1" height="1"/>
	<rect x="5" y="3.03" class="st2" width="1" height="1"/>
	<rect x="5" y="2.03" class="st2" width="1" height="1"/>
	<rect x="6" y="4.03" class="st2" width="1" height="1"/>
	<rect x="5" y="4.03" class="st2" width="1" height="1"/>
	<rect x="4" y="4.03" class="st2" width="1" height="1"/>
	<rect x="3" y="5.03" class="st2" width="1" height="1"/>
	<rect x="2" y="5.03" class="st2" width="1" height="1"/>
	<rect x="5" y="5.03" class="st2" width="1" height="1"/>
	<rect x="4" y="5.03" class="st2" width="1" height="1"/>
	<rect x="3" y="6.02" class="st2" width="1" height="1"/>
	<rect x="2" y="6.02" class="st2" width="1" height="1"/>
	<rect x="5" y="6.02" class="st2" width="1" height="1"/>
	<rect x="4" y="6.02" class="st2" width="1" height="1"/>
	<rect x="3" y="7.02" class="st2" width="1" height="1"/>
	<rect x="4" y="7.02" class="st2" width="1" height="1"/>
	<rect x="1" y="5.03" class="st2" width="1" height="1"/>
	<rect x="2" y="4.03" class="st2" width="1" height="1"/>
	<rect x="1" y="4.03" class="st2" width="1" height="1"/>
</g>
<g id="socket" class="st0">
	<rect y="8" transform="matrix(6.123234e-17 -1 1 6.123234e-17 -8 9)" class="st3" width="1" height="1"/>
	<rect y="7" transform="matrix(6.123234e-17 -1 1 6.123234e-17 -7 8)" class="st3" width="1" height="1"/>
	<rect x="1" y="8" transform="matrix(6.123234e-17 -1 1 6.123234e-17 -7 10)" class="st3" width="1" height="1"/>
	<rect x="8" y="8" transform="matrix(-1 -1.224647e-16 1.224647e-16 -1 17 17)" class="st3" width="1" height="1"/>
	<rect x="7" y="8" transform="matrix(-1 -1.224647e-16 1.224647e-16 -1 15 17)" class="st3" width="1" height="1"/>
	<rect x="8" y="7" transform="matrix(-1 -1.224647e-16 1.224647e-16 -1 17 15)" class="st3" width="1" height="1"/>
	<rect x="8" y="0" transform="matrix(-1.836970e-16 1 -1 -1.836970e-16 9 -8)" class="st3" width="1" height="1"/>
	<rect x="8" y="1" transform="matrix(-1.836970e-16 1 -1 -1.836970e-16 10 -7)" class="st3" width="1" height="1"/>
	<rect x="7" y="0" transform="matrix(-1.836970e-16 1 -1 -1.836970e-16 8 -7)" class="st3" width="1" height="1"/>
	<rect class="st3" width="1" height="1"/>
	<rect x="1" class="st3" width="1" height="1"/>
	<rect y="1" class="st3" width="1" height="1"/>
</g>
<g id="original">
</g>
<g id="Слой_15" class="st0">
</g>
<g id="tome" class="st0">
</g>
<g id="shield" class="st0">
</g>
<g id="ring" class="st0">
</g>
<g id="omen" class="st0">
</g>
<g id="necklace" class="st0">
</g>
<g id="head" class="st0">
</g>
<g id="weapon" class="st0">
</g>
<g id="elytra" class="st0">
</g>
<g id="helmet" class="st0">
</g>
<g id="chest" class="st0">
</g>
<g id="boots" class="st0">
</g>
<g id="pants" class="st0">
</g>
<g id="Слой_2" class="st0">
</g>
</svg>
